<?xml version="1.0" encoding="utf-8"?>
<!-- Generator: Adobe Illustrator 16.0.1, SVG Export Plug-In . SVG Version: 6.00 Build 0)  -->
<!DOCTYPE svg PUBLIC "-//W3C//DTD SVG 1.1//EN" "http://www.w3.org/Graphics/SVG/1.1/DTD/svg11.dtd">
<svg version="1.1" id="Слой_1" xmlns="http://www.w3.org/2000/svg" xmlns:xlink="http://www.w3.org/1999/xlink" x="0px" y="0px"
	 width="429.395px" height="210.838px" viewBox="0 0 429.395 210.838" enable-background="new 0 0 429.395 210.838"
	 xml:space="preserve">
<g>
	<defs>
		<rect id="SVGID_1_" width="429.395" height="210.838"/>
	</defs>
	<clipPath id="SVGID_2_">
		<use xlink:href="#SVGID_1_"  overflow="visible"/>
	</clipPath>
	<path clip-path="url(#SVGID_2_)" fill-rule="evenodd" clip-rule="evenodd" fill="#FFFFFF" d="M0.16,90.397
		c0.828,0,1.816,0.027,2.964,0.054c1.176,0.026,2.377,0.026,3.606,0.026c1.309,0,2.644,0.027,4.006,0.054
		c1.362,0.026,2.697,0.026,4.006,0.026c2.083,0,4.433-0.133,7.051-0.4c2.617-0.267,5.368-0.401,8.225-0.401
		c3.312,0,6.464,0.294,9.508,0.908c3.018,0.588,5.716,1.603,8.039,2.965c2.323,1.389,4.166,3.205,5.528,5.475
		c1.362,2.243,2.03,5.021,2.03,8.307c0,2.724-0.481,5.02-1.415,6.943c-0.935,1.896-2.11,3.525-3.553,4.808
		c-1.442,1.308-2.991,2.377-4.7,3.178c-1.682,0.828-3.285,1.575-4.807,2.243c5.849,0.882,10.362,2.99,13.54,6.33
		c3.179,3.338,4.781,7.771,4.781,13.3c0,4.033-0.855,7.424-2.591,10.202c-1.709,2.804-3.979,5.073-6.757,6.863
		c-2.804,1.763-5.982,3.044-9.561,3.872l-0.237,0.054H10.198c-0.031-3.724,0.057-8.634,0.057-12.392v-52.587
		c0-1.228-0.107-2.27-0.32-3.124c-0.214-0.828-0.668-1.523-1.389-2.057c-0.694-0.561-1.736-0.961-3.098-1.228
		C4.086,93.577,2.27,93.389,0,93.283L0.16,90.397z M19.389,153.64c0,1.737,0.08,3.152,0.267,4.274
		c0.187,1.121,0.641,2.003,1.336,2.616c0.721,0.642,1.762,1.068,3.151,1.31c1.362,0.24,3.285,0.347,5.742,0.347
		c5.502,0,9.882-1.389,13.22-4.14c3.312-2.777,4.967-6.891,4.967-12.313c0-3.178-0.56-5.929-1.655-8.252
		c-1.095-2.323-2.618-4.247-4.567-5.716c-1.977-1.495-4.327-2.59-7.051-3.285c-2.751-0.72-5.795-1.067-9.134-1.067h-6.276V153.64z
		 M19.389,123.407h6.49c6.463,0,11.19-1.229,14.181-3.712c2.992-2.483,4.487-6.143,4.487-11.003c0-1.763-0.24-3.526-0.748-5.262
		c-0.48-1.762-1.362-3.338-2.644-4.727c-1.282-1.415-3.071-2.564-5.368-3.445c-2.27-0.881-5.235-1.335-8.813-1.335
		c-1.87,0-3.339,0.106-4.38,0.347c-1.042,0.24-1.79,0.587-2.27,1.015c-0.454,0.454-0.748,0.988-0.828,1.655
		c-0.08,0.641-0.107,1.389-0.107,2.217V123.407z"/>
	<path clip-path="url(#SVGID_2_)" fill-rule="evenodd" clip-rule="evenodd" fill="#FFFFFF" d="M104.548,135.867l-32.355,9.073
		c-0.521,0.146,2.135,9.31,4.85,11.889c6.533,6.209,17.47,5.53,23.995,0.018c-1.572,12.245-35.373,16.884-39.428-9.934
		c-1.081-7.151,0.083-13.447,3.508-18.876c6.601-10.542,20.648-14.697,30.361-8.174c4.357,2.927,7.843,7.134,8.73,13.551
		L104.548,135.867z M94.812,133.414c-3.324-20.357-26.924-14.309-23.976,8.017L94.812,133.414z"/>
	<path clip-path="url(#SVGID_2_)" fill-rule="evenodd" clip-rule="evenodd" fill="#FFFFFF" d="M129.844,139.14
		c0.054-0.348,0.081-0.803,0.081-1.31v-5.715c0-2.671-0.641-4.861-1.923-6.624c-5.638-7.479-19.774-0.598-21.869,7.104
		c-0.058,0.214-1.037-4.305-0.088-6.199c6.141-12.271,27.579-12.882,31.503,0.673c0.994,3.435,0.233,8.233,0.191,15.407
		c-0.043,7.277,0.073,14.69-0.094,18.686l-7.07-0.234c-3.694,2.107-11.601,5.052-15.953,5.052c-1.736,0-3.339-0.32-4.754-0.936
		c-1.416-0.641-2.644-1.468-3.659-2.536c-1.042-1.068-1.816-2.298-2.377-3.686c-0.561-1.389-0.828-2.857-0.828-4.407
		c0-2.671,0.774-4.94,2.323-6.863c1.549-1.896,3.606-3.365,6.116-4.406c1.843-0.721,4.3-1.469,7.398-2.244
		C121.913,140.154,125.571,139.566,129.844,139.14 M129.604,155.511c0-2.19,0.027-4.326,0.08-6.41
		c0.054-2.083,0.08-4.246,0.08-6.437c-1.415,0.16-2.857,0.374-4.299,0.588c-1.469,0.24-2.858,0.534-4.247,0.908
		c-1.362,0.373-2.644,0.828-3.872,1.415c-1.202,0.562-2.217,1.255-3.072,2.03c-1.309,1.147-1.976,2.644-1.976,4.46
		c0,2.19,0.561,4.033,1.709,5.555c1.122,1.522,2.885,2.271,5.235,2.271c1.682,0,3.472-0.401,5.314-1.175
		C126.399,157.94,128.082,156.872,129.604,155.511"/>
	<path clip-path="url(#SVGID_2_)" fill-rule="evenodd" clip-rule="evenodd" fill="#FFFFFF" d="M147.866,160.718
		c-1.202-1.335-2.136-3.045-2.831-5.128c-0.667-2.083-1.015-4.593-1.015-7.505v-18.694c0-0.69,0.194-6.573,0.073-6.697
		c-0.081-0.083-6.267-0.442-6.963-0.567l-0.16-3.743c3.857,0.042,12.189-1.258,15.804-1.258v10.611
		c-0.034,0.786-0.058,1.549-0.074,2.295c-0.027,1.281-0.027,2.376-0.027,3.338v11.725c0,2.457,0.241,4.541,0.748,6.25
		c0.481,1.682,1.149,3.044,2.003,4.086c0.828,1.068,1.816,1.789,2.965,2.243c1.148,0.454,2.377,0.668,3.685,0.668
		c2.164,0,4.356-0.45,6.65-1.362c2.272-0.904,3.657-1.912,5.633-3.407c0-12.212,0.137-24.764,0.137-36.974
		c2.429,0.093,5.717,0.117,8.092,0.058v44.309l-7.874,0.075C166.44,165.421,155.618,169.328,147.866,160.718"/>
	<path clip-path="url(#SVGID_2_)" fill-rule="evenodd" clip-rule="evenodd" fill="#FFFFFF" d="M196.385,107.521v0.002
		c-0.08,1.655-0.133,3.312-0.187,4.968c-0.053,1.654-0.107,3.205-0.133,4.646c-0.027,1.442-0.027,2.617-0.027,3.499l5.38-0.097
		c0.465,0.187,0.89,0.429,1.267,0.718c0.7,0.493,1.296,1.219,1.841,2.126c0.257,0.45,0.533,0.977,0.825,1.579h-9.313v25.104
		c0,2.029,0.187,3.713,0.587,4.994c0.401,1.309,0.935,2.351,1.63,3.124c0.72,0.775,1.522,1.31,2.457,1.604
		c0.961,0.294,1.976,0.427,3.071,0.427c4.048,0,7.465-1.222,11.035-3.011c-4.368,6.443-8.669,8.246-16.59,8.246
		c-1.496,0-2.885-0.214-4.166-0.588c-1.282-0.4-2.404-1.068-3.392-2.003c-0.988-0.936-1.763-2.163-2.297-3.686
		c-0.561-1.549-0.828-3.419-0.828-5.662v-2.109c0-0.936,0-2.432,0.027-4.515c0.026-2.083,0.053-4.859,0.053-8.358v-13.567h-2.153
		v-4.005l2.073-0.161v-6.57c0-1.336,0-2.671-0.027-4.06c-0.017-0.898-0.035-1.785-0.045-2.646H196.385z"/>
	<path clip-path="url(#SVGID_2_)" fill-rule="evenodd" clip-rule="evenodd" fill="#FFFFFF" d="M251.208,118.216
		c-1.53,0.208-2.748,0.441-3.656,0.675c-0.907,0.26-1.711,0.647-2.411,1.192c-0.674,0.519-1.296,1.244-1.867,2.152
		c-0.544,0.933-1.218,2.126-1.97,3.656c-1.167,2.333-2.437,5.028-3.812,8.089c-1.374,3.059-2.774,6.326-4.227,9.773
		c-1.451,3.448-2.898,7.003-4.381,10.683c-6.02,14.945-12.281,22.68-22.609,29.793c13.506,4.253,27.665,8.989,42.08,13.553
		c59.7,18.9,65.101-11.4,65.101-11.4c-0.3,0,3,12.601-23.4,22.2c-26.399,9.601-91.2-17.399-91.2-17.399s-36,16.949-54.75,19.35
		s-55.8-9.45-33.3-31.5c16.391-16.063,50.217-8.801,90.457,3.633c9.196-6.725,18.068-13.297,19.921-20.398l0.156-0.597l-0.233-1.063
		c-1.011-2.749-2.1-5.626-3.267-8.687c-1.167-3.032-2.333-6.093-3.526-9.126c-1.192-3.034-2.385-6.015-3.578-8.893
		c-1.193-2.904-2.334-5.574-3.397-8.063c-0.648-1.529-1.244-2.748-1.763-3.655c-0.544-0.907-1.14-1.634-1.84-2.126
		c-0.674-0.52-1.504-0.883-2.438-1.063c-0.933-0.208-2.125-0.363-3.603-0.467l0.101-1.819h22.361l0.094,1.508
		c-2.022,0.312-3.422,0.648-4.226,0.985c-0.805,0.363-1.22,0.96-1.22,1.815c0,0.415,0.075,0.908,0.26,1.504
		c0.179,0.571,0.369,1.226,0.648,1.919l10.813,26.889l12.928-34.62h11.658L251.208,118.216z M192.256,188.183
		c0,0-20.44-8.236-42.043-11.734c-12.111-1.96-24.999-3.975-33.857,1.534c-20.743,12.902-2.891,31.669,23.7,29.7
		C166.647,205.713,192.256,188.183,192.256,188.183"/>
	<path clip-path="url(#SVGID_2_)" fill-rule="evenodd" clip-rule="evenodd" fill="#FFFFFF" d="M418.648,135.867l-32.355,9.073
		c-0.521,0.146,2.136,9.31,4.851,11.889c6.533,6.209,17.47,5.53,23.995,0.018c-1.572,12.245-35.373,16.884-39.429-9.934
		c-1.081-7.151,0.083-13.447,3.509-18.876c6.601-10.542,20.647-14.697,30.36-8.174c4.357,2.927,7.844,7.134,8.73,13.551
		L418.648,135.867z M408.912,133.414c-3.323-20.357-26.924-14.309-23.976,8.017L408.912,133.414z"/>
	<path clip-path="url(#SVGID_2_)" fill-rule="evenodd" clip-rule="evenodd" fill="#FFFFFF" d="M262.192,130.4
		c0.66,4.899,1.877,9.406,3.681,13.541c1.808,4.162,4.16,7.64,7.067,10.512c2.904,2.846,6.32,4.96,10.296,6.308
		c4.245,1.44,10.029,1.523,15.506,0.928c0.64,0.596,1.297,1.114,1.97,1.564c-13.841,5.048-24.61,3.003-34.069-3.547
		c-3.983-2.781-7.275-6.344-9.877-10.69c-2.628-4.343-4.313-9.369-5.075-15.025c-0.878-6.515-0.447-12.385,1.298-17.555
		c1.741-5.196,4.451-9.701,8.104-13.51c3.676-3.838,8.093-6.9,13.296-9.246c2.939-1.315,6.014-2.391,9.224-3.224h27.887
		c0.145,2.72,0.335,5.319,0.599,7.778c0.315,2.929,0.703,6.008,1.142,9.266l-3.242,0.755c-0.611-2.969-1.562-5.495-2.847-7.551
		c-1.289-2.082-2.864-3.727-4.703-4.965c-1.859-1.209-3.933-2.018-6.217-2.427c-2.28-0.383-4.697-0.402-7.304-0.051
		c-5.082,0.684-9.456,2.096-13.125,4.209c-3.666,2.138-6.597,4.815-8.842,8.036c-2.217,3.244-3.757,6.981-4.542,11.2
		C261.609,120.953,261.532,125.5,262.192,130.4"/>
	<path clip-path="url(#SVGID_2_)" fill-rule="evenodd" clip-rule="evenodd" fill="#FFFFFF" d="M346.15,161.668v-7.775
		c0.037-0.772,0.055-1.632,0.055-2.575v-21.725c0-1.578-0.088-2.812-0.26-3.702c-0.172-0.889-0.516-1.606-1.062-2.124
		c-0.545-0.545-1.349-0.947-2.439-1.233c-1.062-0.287-2.524-0.545-4.333-0.832l-0.142-1.317l17.691-2.967
		c-0.128,1.088-0.208,2.17-0.244,3.251c-0.059,1.692-0.086,3.415-0.086,5.08c1.808-2.183,3.443-3.99,4.906-5.396
		c1.207-1.161,2.321-2.115,3.356-2.861c5.313,0,13.196-1.245,12.791,6.819c-0.214,4.275-1.553,8.647-1.661,8.676
		c-0.233,0.062-1.51,0.053-2.514,0.004c-0.046-0.041-0.631-23.931-16.277-2.277c-0.39,0.541-0.459,1.177-0.516,1.636
		c-0.048,0.41-0.076,0.92-0.084,1.532h-0.107v27.788h7.742v3.6h-25.2v-3.6H346.15z"/>
	<path clip-path="url(#SVGID_2_)" fill-rule="evenodd" clip-rule="evenodd" fill="#FFFFFF" d="M301.166,160.567
		c-1.202-1.335-2.136-3.045-2.831-5.128c-0.668-2.083-1.015-4.593-1.015-7.505V129.24c0-0.689,0.194-6.573,0.073-6.697
		c-0.081-0.084-6.268-0.443-6.963-0.567l-0.16-3.743c3.856,0.041,12.188-1.258,15.804-1.258v10.611
		c-0.034,0.786-0.058,1.55-0.074,2.295c-0.026,1.281-0.026,2.377-0.026,3.339v11.724c0,2.457,0.24,4.541,0.748,6.25
		c0.48,1.682,1.148,3.044,2.003,4.086c0.828,1.068,1.815,1.789,2.965,2.243c1.147,0.454,2.377,0.668,3.685,0.668
		c2.163,0,4.356-0.45,6.65-1.362c2.271-0.903,3.657-1.912,5.633-3.406c0-12.213,0.137-24.766,0.137-36.975
		c2.43,0.093,5.718,0.117,8.093,0.059v44.307l-7.874,0.076C319.74,165.271,308.918,169.179,301.166,160.567"/>
	<path clip-path="url(#SVGID_2_)" fill-rule="evenodd" clip-rule="evenodd" fill="#FFFFFF" d="M63.681,94.382l-1.452,0.799
		c-0.273-0.286-0.542-0.482-0.808-0.594c-0.266-0.111-0.579-0.166-0.937-0.166c-0.653,0-1.181,0.195-1.583,0.581
		c-0.404,0.389-0.605,0.884-0.605,1.491c0,0.59,0.195,1.071,0.581,1.444c0.389,0.373,0.897,0.559,1.528,0.559
		c0.78,0,1.387-0.267,1.824-0.8l1.373,0.944c-0.746,0.97-1.799,1.454-3.159,1.454c-1.225,0-2.184-0.362-2.876-1.085
		c-0.692-0.723-1.04-1.568-1.04-2.537c0-0.673,0.169-1.291,0.505-1.856c0.338-0.566,0.808-1.012,1.413-1.335
		c0.602-0.323,1.277-0.484,2.024-0.484c0.692,0,1.312,0.137,1.863,0.412C62.882,93.484,63.332,93.875,63.681,94.382 M64.64,92.967
		h6.485v1.664h-2.319v5.293h-1.742v-5.293H64.64V92.967z M71.49,92.967h1.79l1.802,4.356l1.996-4.356h1.786l-4.352,9.499h-1.786
		l1.415-3.055L71.49,92.967z M80.77,99.924v1.205h-1.559v-2.686h1.046l2.413-5.476h1.127l2.428,5.476h1.07v2.686h-1.664v-1.205
		H80.77z M84.369,98.443l-1.142-2.939l-1.197,2.939H84.369z M89.322,99.924h-0.928v-6.957h1.703v4.086l3.564-4.086h0.838v6.957
		h-1.703v-4.003L89.322,99.924z M97.445,97.07c-0.378-0.125-0.688-0.358-0.93-0.701c-0.243-0.343-0.363-0.729-0.363-1.16
		c0-0.515,0.146-0.967,0.441-1.353c0.295-0.389,0.646-0.634,1.055-0.736c0.408-0.103,1.044-0.153,1.91-0.153h1.769v6.957h-1.742
		v-2.516h-0.339l-1.666,2.516h-2.072L97.445,97.07z M99.584,96.099v-1.677h-0.612c-0.666,0-1,0.278-1,0.834
		c0,0.562,0.371,0.843,1.116,0.843H99.584z M111.014,97.354l2.153-4.387h1.151l1.734,6.957h-1.708l-0.932-4.084l-2.079,4.084h-0.716
		l-2.027-4.086l-0.937,4.086h-1.703l1.74-6.957h1.151L111.014,97.354z M122.16,92.967h1.742v6.957h-1.742v-0.74
		c-0.341,0.323-0.684,0.554-1.027,0.696c-0.342,0.142-0.716,0.214-1.115,0.214c-0.902,0-1.68-0.347-2.337-1.043
		c-0.657-0.695-0.985-1.56-0.985-2.592c0-1.073,0.319-1.951,0.954-2.636c0.636-0.684,1.407-1.026,2.315-1.026
		c0.419,0,0.81,0.078,1.177,0.233c0.367,0.155,0.705,0.391,1.018,0.701V92.967z M120.323,94.396c-0.541,0-0.991,0.19-1.347,0.572
		c-0.358,0.38-0.537,0.869-0.537,1.465c0,0.601,0.181,1.095,0.546,1.483c0.364,0.386,0.812,0.581,1.345,0.581
		c0.548,0,1.004-0.19,1.364-0.572c0.363-0.38,0.544-0.88,0.544-1.498c0-0.605-0.181-1.094-0.544-1.47
		C121.333,94.583,120.875,94.396,120.323,94.396 M127.403,95.469h2.62v-2.502h1.743v6.957h-1.743v-2.883h-2.62v2.883h-1.743v-6.957
		h1.743V95.469z M134.451,99.924h-0.928v-6.957h1.704v4.086l3.564-4.086h0.838v6.957h-1.703v-4.003L134.451,99.924z M141.387,92.967
		h1.742v2.605l2.422-2.605h2.129l-3.116,3.38l3.155,3.577h-2.321l-2.081-2.452l-0.188,0.214v2.238h-1.742V92.967z M150.167,99.924
		h-1.742v-6.957h1.742v2.751h0.93c0.214-0.915,0.662-1.629,1.343-2.146c0.682-0.518,1.42-0.775,2.21-0.775
		c1.022,0,1.891,0.351,2.612,1.054c0.72,0.706,1.081,1.568,1.081,2.588c0,1-0.352,1.858-1.053,2.576
		c-0.701,0.719-1.579,1.079-2.633,1.079c-0.843,0-1.601-0.264-2.273-0.795c-0.675-0.528-1.103-1.19-1.287-1.982h-0.93V99.924z
		 M156.574,96.439c0-0.594-0.179-1.077-0.535-1.448c-0.356-0.371-0.814-0.557-1.374-0.557c-0.548,0-1,0.192-1.356,0.577
		c-0.355,0.384-0.535,0.858-0.535,1.421c0,0.608,0.18,1.096,0.535,1.468c0.356,0.371,0.808,0.556,1.356,0.556
		c0.538,0,0.99-0.185,1.359-0.556C156.391,97.528,156.574,97.042,156.574,96.439 M161.496,92.967v0.764
		c0.315-0.31,0.655-0.546,1.022-0.701c0.367-0.155,0.76-0.233,1.177-0.233c0.906,0,1.677,0.342,2.313,1.026
		c0.635,0.685,0.952,1.563,0.952,2.636c0,1.032-0.328,1.897-0.985,2.592c-0.655,0.696-1.433,1.043-2.332,1.043
		c-0.4,0-0.773-0.072-1.118-0.214c-0.346-0.142-0.688-0.375-1.029-0.701v3.287h-1.742v-9.499H161.496z M163.326,94.396
		c-0.548,0-1.005,0.188-1.365,0.561c-0.362,0.376-0.543,0.865-0.543,1.47c0,0.618,0.181,1.118,0.543,1.498
		c0.36,0.382,0.817,0.572,1.365,0.572c0.533,0,0.981-0.195,1.345-0.581c0.365-0.388,0.546-0.882,0.546-1.483
		c0-0.596-0.179-1.085-0.537-1.465C164.324,94.585,163.872,94.396,163.326,94.396 M173.552,92.967h1.743v6.957h-1.743v-0.74
		c-0.34,0.323-0.683,0.554-1.026,0.696c-0.343,0.142-0.716,0.214-1.116,0.214c-0.902,0-1.679-0.347-2.336-1.043
		c-0.658-0.695-0.985-1.56-0.985-2.592c0-1.073,0.318-1.951,0.954-2.636c0.636-0.684,1.406-1.026,2.315-1.026
		c0.419,0,0.81,0.078,1.177,0.233c0.367,0.155,0.705,0.391,1.017,0.701V92.967z M171.716,94.396c-0.542,0-0.991,0.19-1.348,0.572
		c-0.358,0.38-0.537,0.869-0.537,1.465c0,0.601,0.181,1.095,0.546,1.483c0.365,0.386,0.812,0.581,1.345,0.581
		c0.548,0,1.005-0.19,1.365-0.572c0.363-0.38,0.544-0.88,0.544-1.498c0-0.605-0.181-1.094-0.544-1.47
		C172.727,94.583,172.268,94.396,171.716,94.396 M181.646,99.924h-0.928v-6.957h1.704v4.086l3.563-4.086h0.839v6.957h-1.704v-4.003
		L181.646,99.924z M193.991,99.924h-1.742v-6.957h6.105v6.957h-1.742v-5.28h-2.621V99.924z M207.076,96.938h-5.601
		c0.081,0.495,0.297,0.891,0.646,1.186c0.35,0.292,0.797,0.438,1.339,0.438c0.65,0,1.207-0.229,1.674-0.688l1.464,0.693
		c-0.365,0.519-0.804,0.904-1.313,1.155c-0.511,0.249-1.116,0.373-1.817,0.373c-1.087,0-1.974-0.343-2.657-1.03
		c-0.684-0.686-1.027-1.546-1.027-2.579c0-1.059,0.343-1.94,1.027-2.638c0.683-0.701,1.539-1.05,2.572-1.05
		c1.094,0,1.985,0.349,2.671,1.046c0.686,0.698,1.028,1.618,1.028,2.764L207.076,96.938z M205.34,95.574
		c-0.116-0.38-0.343-0.69-0.682-0.928c-0.34-0.238-0.733-0.356-1.183-0.356c-0.487,0-0.913,0.133-1.282,0.402
		c-0.229,0.166-0.443,0.461-0.64,0.882H205.34z M209.404,99.924v1.205h-1.56v-2.686h1.046l2.413-5.476h1.127l2.428,5.476h1.07v2.686
		h-1.664v-1.205H209.404z M213.001,98.443l-1.142-2.939l-1.196,2.939H213.001z M217.955,99.924h-0.929v-6.957h1.703v4.086
		l3.564-4.086h0.838v6.957h-1.703v-4.003L217.955,99.924z M224.89,92.967h1.742v2.605l2.422-2.605h2.129l-3.116,3.38l3.156,3.577
		H228.9l-2.081-2.452l-0.188,0.214v2.238h-1.742V92.967z M233.67,99.924h-1.742v-6.957h1.742v2.751h0.931
		c0.214-0.915,0.661-1.629,1.343-2.146c0.682-0.518,1.419-0.775,2.209-0.775c1.022,0,1.893,0.351,2.612,1.054
		c0.721,0.706,1.081,1.568,1.081,2.588c0,1-0.352,1.858-1.052,2.576c-0.701,0.719-1.579,1.079-2.634,1.079
		c-0.844,0-1.602-0.264-2.273-0.795c-0.675-0.528-1.104-1.19-1.286-1.982h-0.931V99.924z M240.077,96.439
		c0-0.594-0.18-1.077-0.535-1.448c-0.356-0.371-0.814-0.557-1.373-0.557c-0.548,0-1,0.192-1.356,0.577
		c-0.355,0.384-0.535,0.858-0.535,1.421c0,0.608,0.18,1.096,0.535,1.468c0.356,0.371,0.809,0.556,1.356,0.556
		c0.537,0,0.988-0.185,1.357-0.556C239.894,97.528,240.077,97.042,240.077,96.439 M244.999,92.967v0.764
		c0.314-0.31,0.654-0.546,1.021-0.701c0.367-0.155,0.76-0.233,1.177-0.233c0.907,0,1.678,0.342,2.313,1.026
		c0.635,0.685,0.952,1.563,0.952,2.636c0,1.032-0.328,1.897-0.985,2.592c-0.655,0.696-1.432,1.043-2.332,1.043
		c-0.399,0-0.772-0.072-1.118-0.214c-0.345-0.142-0.688-0.375-1.028-0.701v3.287h-1.742v-9.499H244.999z M246.829,94.396
		c-0.549,0-1.005,0.188-1.365,0.561c-0.362,0.376-0.543,0.865-0.543,1.47c0,0.618,0.181,1.118,0.543,1.498
		c0.36,0.382,0.816,0.572,1.365,0.572c0.532,0,0.98-0.195,1.345-0.581c0.365-0.388,0.546-0.882,0.546-1.483
		c0-0.596-0.179-1.085-0.537-1.465C247.827,94.585,247.375,94.396,246.829,94.396 M257.056,92.967h1.742v6.957h-1.742v-0.74
		c-0.341,0.323-0.684,0.554-1.027,0.696c-0.343,0.142-0.716,0.214-1.115,0.214c-0.902,0-1.68-0.347-2.336-1.043
		c-0.657-0.695-0.985-1.56-0.985-2.592c0-1.073,0.319-1.951,0.954-2.636c0.636-0.684,1.407-1.026,2.314-1.026
		c0.419,0,0.811,0.078,1.178,0.233c0.366,0.155,0.704,0.391,1.018,0.701V92.967z M255.219,94.396c-0.541,0-0.991,0.19-1.347,0.572
		c-0.358,0.38-0.537,0.869-0.537,1.465c0,0.601,0.181,1.095,0.545,1.483c0.365,0.386,0.813,0.581,1.346,0.581
		c0.548,0,1.004-0.19,1.364-0.572c0.363-0.38,0.544-0.88,0.544-1.498c0-0.605-0.181-1.094-0.544-1.47
		C256.229,94.583,255.771,94.396,255.219,94.396"/>
</g>
<g>
	<defs>
		<path id="SVGID_3_" d="M380.485,0c0,0,1.675,5.027-2.589,15.535c-6.61,16.289-46.823,29.992-38.383,64.884
			c1.748-31.702,22.183-38.166,39.752-57.725c8.968,21.778-11.399,56.316-33.201,65.036c1.646-13.409,6.927-20.958,15.229-31.223
			c-9.307,4.912-20.705,27.503-21.932,38.228C382.024,85.362,393.257,36.15,380.485,0z"/>
	</defs>
	<clipPath id="SVGID_4_">
		<use xlink:href="#SVGID_3_"  overflow="visible"/>
	</clipPath>
	
		<linearGradient id="SVGID_5_" gradientUnits="userSpaceOnUse" x1="0" y1="210.8516" x2="1" y2="210.8516" gradientTransform="matrix(63.3851 -165.1237 -165.1237 -63.3851 35146.6641 13495.8936)">
		<stop  offset="0" style="stop-color:#4F017D"/>
		<stop  offset="1" style="stop-color:#F0047F"/>
	</linearGradient>
	<polygon clip-path="url(#SVGID_4_)" fill="url(#SVGID_5_)" points="299.378,82.568 339.06,-20.805 424.952,12.167 385.271,115.539 
			"/>
</g>
<g>
	<defs>
		<path id="SVGID_6_" d="M334.754,85.903c-3.009-12.071,0.191-20.563,0.191-20.563C330.904,68.759,330.5,82.285,334.754,85.903"/>
	</defs>
	<clipPath id="SVGID_7_">
		<use xlink:href="#SVGID_6_"  overflow="visible"/>
	</clipPath>
	
		<linearGradient id="SVGID_8_" gradientUnits="userSpaceOnUse" x1="0" y1="210.8379" x2="1" y2="210.8379" gradientTransform="matrix(5.9669 0 0 -5.9669 331.5007 1333.6729)">
		<stop  offset="0" style="stop-color:#669716"/>
		<stop  offset="1" style="stop-color:#99CF16"/>
	</linearGradient>
	<rect x="330.5" y="65.34" clip-path="url(#SVGID_7_)" fill="url(#SVGID_8_)" width="4.445" height="20.563"/>
</g>
<g>
	<defs>
		<path id="SVGID_9_" d="M330.68,89.558l5.445,2.285c0,0-5.369-4.95-6.702-19.573C328.941,75.861,328.568,86.966,330.68,89.558"/>
	</defs>
	<clipPath id="SVGID_10_">
		<use xlink:href="#SVGID_9_"  overflow="visible"/>
	</clipPath>
	
		<linearGradient id="SVGID_11_" gradientUnits="userSpaceOnUse" x1="0" y1="210.8379" x2="1" y2="210.8379" gradientTransform="matrix(24.041 0 0 -24.041 321.385 5150.8008)">
		<stop  offset="0" style="stop-color:#669716"/>
		<stop  offset="1" style="stop-color:#99CF16"/>
	</linearGradient>
	<rect x="328.568" y="72.27" clip-path="url(#SVGID_10_)" fill="url(#SVGID_11_)" width="7.557" height="19.573"/>
</g>
<g>
	<defs>
		<path id="SVGID_12_" d="M319.142,94.471c5.258-2.336,11.296,2.71,19.494,7.756c9.641,5.934,22.27,11.867,40.136,5.799
			c-15.044,1.218-20.436-1.052-24.813-3.152c-4.188-2.01-7.415-4.939-18.672-10.784c-2.038-1.059-5.972-2.113-9.531-2.113
			C322.944,91.977,320.366,92.635,319.142,94.471"/>
	</defs>
	<clipPath id="SVGID_13_">
		<use xlink:href="#SVGID_12_"  overflow="visible"/>
	</clipPath>
	
		<linearGradient id="SVGID_14_" gradientUnits="userSpaceOnUse" x1="0" y1="210.832" x2="1" y2="210.832" gradientTransform="matrix(333.3548 0 0 -333.3548 182.3234 70385.1563)">
		<stop  offset="0" style="stop-color:#4F017D"/>
		<stop  offset="1" style="stop-color:#F0047F"/>
	</linearGradient>
	<rect x="319.142" y="91.977" clip-path="url(#SVGID_13_)" fill="url(#SVGID_14_)" width="59.629" height="22.117"/>
</g>
<g>
	<defs>
		<path id="SVGID_15_" d="M338.941,94.454c7.604,1.54,25.68-0.783,31.203-5.599c-8.942,3.027-15.324,4.733-24.859,2.879
			c11.036-11.883,39.355-17.29,52.126-6.931c-17.445,6.873-26.622,18.379-48.665,12.643c21.844,12.857,40.574-9.574,53.231-10.233
			c8.166-0.425,11.206,1.716,11.206,1.716c-10.578-7.735-24.609-12.536-38.104-12.536C360.901,76.392,347.315,81.691,338.941,94.454
			"/>
	</defs>
	<clipPath id="SVGID_16_">
		<use xlink:href="#SVGID_15_"  overflow="visible"/>
	</clipPath>
	
		<linearGradient id="SVGID_17_" gradientUnits="userSpaceOnUse" x1="0" y1="210.791" x2="1" y2="210.791" gradientTransform="matrix(74.2428 0 0 -74.2428 338.9163 15742.1016)">
		<stop  offset="0" style="stop-color:#669716"/>
		<stop  offset="1" style="stop-color:#99CF16"/>
	</linearGradient>
	<rect x="338.941" y="74.444" clip-path="url(#SVGID_16_)" fill="url(#SVGID_17_)" width="74.242" height="35.859"/>
</g>
<g>
	<defs>
		<path id="SVGID_18_" d="M390.618,42.44c-1.493,2.126-0.98,5.06,1.146,6.552c2.125,1.493,5.06,0.98,6.553-1.146
			c1.492-2.126,0.979-5.06-1.146-6.552c-0.823-0.577-1.766-0.855-2.7-0.855C392.99,40.439,391.533,41.136,390.618,42.44"/>
	</defs>
	<clipPath id="SVGID_19_">
		<use xlink:href="#SVGID_18_"  overflow="visible"/>
	</clipPath>
	
		<linearGradient id="SVGID_20_" gradientUnits="userSpaceOnUse" x1="0" y1="210.8281" x2="1" y2="210.8281" gradientTransform="matrix(4.3268 -11.2717 -11.2717 -4.3268 2768.7986 963.0247)">
		<stop  offset="0" style="stop-color:#4F017D"/>
		<stop  offset="1" style="stop-color:#F0047F"/>
	</linearGradient>
	<polygon clip-path="url(#SVGID_19_)" fill="url(#SVGID_20_)" points="385.764,49.195 390.497,36.864 403.17,41.729 398.437,54.06 	
		"/>
</g>
<g>
	<defs>
		<path id="SVGID_21_" d="M393.672,61.652c-1.492,2.126-0.979,5.059,1.146,6.552c2.126,1.493,5.059,0.98,6.552-1.146
			c1.492-2.126,0.979-5.059-1.146-6.552c-0.821-0.577-1.765-0.855-2.698-0.855C396.045,59.651,394.587,60.348,393.672,61.652"/>
	</defs>
	<clipPath id="SVGID_22_">
		<use xlink:href="#SVGID_21_"  overflow="visible"/>
	</clipPath>
	
		<linearGradient id="SVGID_23_" gradientUnits="userSpaceOnUse" x1="0" y1="210.8047" x2="1" y2="210.8047" gradientTransform="matrix(9.4071 0.1642 0.1642 -9.4071 358.1961 2047.6431)">
		<stop  offset="0" style="stop-color:#669716"/>
		<stop  offset="1" style="stop-color:#99CF16"/>
	</linearGradient>
	<polygon clip-path="url(#SVGID_22_)" fill="url(#SVGID_23_)" points="392.184,59.464 403.037,59.654 402.858,69.883 
		392.005,69.694 	"/>
</g>
<g>
	<defs>
		<path id="SVGID_24_" d="M406.801,66.518c-1.719,2.448-1.128,5.825,1.32,7.544c2.448,1.719,5.826,1.129,7.545-1.319
			c1.719-2.448,1.128-5.826-1.32-7.545c-0.946-0.665-2.033-0.984-3.108-0.984C409.533,64.214,407.855,65.017,406.801,66.518"/>
	</defs>
	<clipPath id="SVGID_25_">
		<use xlink:href="#SVGID_24_"  overflow="visible"/>
	</clipPath>
	
		<linearGradient id="SVGID_26_" gradientUnits="userSpaceOnUse" x1="0" y1="210.8047" x2="1" y2="210.8047" gradientTransform="matrix(10.8325 0.1891 0.1891 -10.8325 365.9487 2353.4392)">
		<stop  offset="0" style="stop-color:#669716"/>
		<stop  offset="1" style="stop-color:#99CF16"/>
	</linearGradient>
	<polygon clip-path="url(#SVGID_25_)" fill="url(#SVGID_26_)" points="405.086,63.999 417.587,64.217 417.381,75.996 404.88,75.777 
			"/>
</g>
<g>
	<defs>
		<path id="SVGID_27_" d="M406.914,48.746c-1.334,1.9-0.875,4.523,1.025,5.857c1.899,1.334,4.522,0.876,5.857-1.025
			c1.333-1.9,0.874-4.522-1.025-5.857c-0.735-0.516-1.577-0.764-2.412-0.764C409.036,46.957,407.733,47.581,406.914,48.746"/>
	</defs>
	<clipPath id="SVGID_28_">
		<use xlink:href="#SVGID_27_"  overflow="visible"/>
	</clipPath>
	
		<linearGradient id="SVGID_29_" gradientUnits="userSpaceOnUse" x1="0" y1="210.8291" x2="1" y2="210.8291" gradientTransform="matrix(3.868 -10.0764 -10.0764 -3.868 2532.9004 871.7123)">
		<stop  offset="0" style="stop-color:#4F017D"/>
		<stop  offset="1" style="stop-color:#F0047F"/>
	</linearGradient>
	<polygon clip-path="url(#SVGID_28_)" fill="url(#SVGID_29_)" points="402.575,54.784 406.807,43.762 418.135,48.11 413.903,59.132 
			"/>
</g>
<g>
	<defs>
		<path id="SVGID_30_" d="M420.41,54.826c-0.771,1.095-0.505,2.606,0.59,3.375s2.606,0.505,3.375-0.591
			c0.769-1.094,0.504-2.605-0.59-3.375c-0.424-0.297-0.91-0.44-1.392-0.44C421.632,53.795,420.881,54.154,420.41,54.826"/>
	</defs>
	<clipPath id="SVGID_31_">
		<use xlink:href="#SVGID_30_"  overflow="visible"/>
	</clipPath>
	
		<linearGradient id="SVGID_32_" gradientUnits="userSpaceOnUse" x1="0" y1="210.8281" x2="1" y2="210.8281" gradientTransform="matrix(2.229 -5.8068 -5.8068 -2.229 1645.5662 529.083)">
		<stop  offset="0" style="stop-color:#4F017D"/>
		<stop  offset="1" style="stop-color:#F0047F"/>
	</linearGradient>
	<polygon clip-path="url(#SVGID_31_)" fill="url(#SVGID_32_)" points="417.908,58.305 420.347,51.954 426.875,54.459 
		424.438,60.812 	"/>
</g>
<g>
	<defs>
		<path id="SVGID_33_" d="M414.155,37.727c-0.77,1.094-0.504,2.606,0.59,3.375c1.095,0.769,2.606,0.505,3.375-0.591
			c0.77-1.095,0.505-2.606-0.59-3.375c-0.424-0.297-0.91-0.44-1.392-0.44C415.377,36.696,414.626,37.055,414.155,37.727"/>
	</defs>
	<clipPath id="SVGID_34_">
		<use xlink:href="#SVGID_33_"  overflow="visible"/>
	</clipPath>
	
		<linearGradient id="SVGID_35_" gradientUnits="userSpaceOnUse" x1="0" y1="210.8281" x2="1" y2="210.8281" gradientTransform="matrix(2.2286 -5.8058 -5.8058 -2.2286 1639.1036 511.9021)">
		<stop  offset="0" style="stop-color:#4F017D"/>
		<stop  offset="1" style="stop-color:#F0047F"/>
	</linearGradient>
	<polygon clip-path="url(#SVGID_34_)" fill="url(#SVGID_35_)" points="411.654,41.206 414.093,34.854 420.621,37.36 418.184,43.712 
			"/>
</g>
<g>
	<defs>
		<path id="SVGID_36_" d="M402.265,30.596c-1.334,1.901-0.876,4.522,1.025,5.857c1.9,1.335,4.522,0.876,5.857-1.025
			c1.335-1.9,0.876-4.522-1.025-5.857c-0.735-0.516-1.578-0.764-2.412-0.764C404.386,28.807,403.083,29.43,402.265,30.596"/>
	</defs>
	<clipPath id="SVGID_37_">
		<use xlink:href="#SVGID_36_"  overflow="visible"/>
	</clipPath>
	
		<linearGradient id="SVGID_38_" gradientUnits="userSpaceOnUse" x1="0" y1="210.8291" x2="1" y2="210.8291" gradientTransform="matrix(3.868 -10.0764 -10.0764 -3.868 2528.252 853.5638)">
		<stop  offset="0" style="stop-color:#0480B7"/>
		<stop  offset="1" style="stop-color:#67C3B7"/>
	</linearGradient>
	<polygon clip-path="url(#SVGID_37_)" fill="url(#SVGID_38_)" points="397.926,36.634 402.157,25.611 413.486,29.96 409.256,40.983 
			"/>
</g>
<g>
	<defs>
		<path id="SVGID_39_" d="M424.849,37.829c-0.793,1.131-0.521,2.689,0.609,3.483s2.69,0.52,3.483-0.609
			c0.794-1.131,0.521-2.689-0.609-3.483c-0.438-0.307-0.938-0.455-1.435-0.455C426.11,36.765,425.335,37.136,424.849,37.829"/>
	</defs>
	<clipPath id="SVGID_40_">
		<use xlink:href="#SVGID_39_"  overflow="visible"/>
	</clipPath>
	
		<linearGradient id="SVGID_41_" gradientUnits="userSpaceOnUse" x1="0" y1="210.8281" x2="1" y2="210.8281" gradientTransform="matrix(2.3001 -5.992 -5.992 -2.3001 1689.0764 527.2059)">
		<stop  offset="0" style="stop-color:#0480B7"/>
		<stop  offset="1" style="stop-color:#67C3B7"/>
	</linearGradient>
	<polygon clip-path="url(#SVGID_40_)" fill="url(#SVGID_41_)" points="422.27,41.42 424.785,34.865 431.521,37.451 429.006,44.006 	
		"/>
</g>
<g>
	<defs>
		<path id="SVGID_42_" d="M416.471,24.414c-0.768,1.095-0.505,2.605,0.592,3.375c1.095,0.768,2.605,0.505,3.375-0.591
			c0.769-1.095,0.505-2.606-0.592-3.375c-0.423-0.297-0.908-0.44-1.389-0.44C417.694,23.383,416.943,23.742,416.471,24.414"/>
	</defs>
	<clipPath id="SVGID_43_">
		<use xlink:href="#SVGID_42_"  overflow="visible"/>
	</clipPath>
	
		<linearGradient id="SVGID_44_" gradientUnits="userSpaceOnUse" x1="0" y1="210.8271" x2="1" y2="210.8271" gradientTransform="matrix(2.229 -5.8067 -5.8067 -2.229 1641.6115 498.6594)">
		<stop  offset="0" style="stop-color:#0480B7"/>
		<stop  offset="1" style="stop-color:#67C3B7"/>
	</linearGradient>
	<polygon clip-path="url(#SVGID_43_)" fill="url(#SVGID_44_)" points="413.972,27.893 416.41,21.542 422.938,24.047 420.499,30.398 
			"/>
</g>
</svg>
